# xmcd
#
# Track frame offsets: 
#        150
#        11629
#        21663
#        37148
#        45701
#        59524
#        73507
#        90510
#        102546
#        120821
#
# Disc length: 1794 seconds
#
# Revision: 0
# Processed by: cddbd v1.5.2PL0 Copyright (c) Steve Scherf et al.
# Submitted via: ExactAudioCopy v0.99pb3
#
DISCID=8607000a
DTITLE=Various Artist - the blues
DYEAR=2004
DGENRE=Blues
TTITLE0=Boom Boom - John Lee Hooker
TTITLE1=First Time I met The Blues - Buddy Guy
TTITLE2=How Blue Can You Get? - B.B. King
TTITLE3=Baby, Please Don't Go - Big Joe Williams
TTITLE4=Where Did You Sleep Last Night? - Leadbelly
TTITLE5=Trouble In Mind - Memphis Slim
TTITLE6=Goin' Dow Slow - Gatemouth Moore
TTITLE7=Have You Ever Loved A Woman? - Lightnin' Hopkins
TTITLE8=Driftin' Blues - Charles Brown
TTITLE9=One Bourbon, One Scotch, One Beer - Amos Milbourne
EXTD=
EXTT0=
EXTT1=
EXTT2=
EXTT3=
EXTT4=
EXTT5=
EXTT6=
EXTT7=
EXTT8=
EXTT9=
PLAYORDER=
